<svg xmlns="http://www.w3.org/2000/svg" xmlns:xlink="http://www.w3.org/1999/xlink" width="420" zoomAndPan="magnify" viewBox="0 0 315 437.999984" height="584" preserveAspectRatio="xMidYMid meet" version="1.0"><defs><clipPath id="64d2a32fe5"><path d="M 137.429688 265.871094 L 300.179688 265.871094 L 300.179688 428.621094 L 137.429688 428.621094 Z M 137.429688 265.871094 " clip-rule="nonzero"/></clipPath></defs><rect x="-31.5" width="378" fill="#ffffff" y="-43.799998" height="525.599981" fill-opacity="1"/><rect x="-31.5" width="378" fill="#ffffff" y="-43.799998" height="525.599981" fill-opacity="1"/><rect x="-31.5" width="378" fill="#f9f9f9" y="-43.799998" height="525.599981" fill-opacity="1"/><g clip-path="url(#64d2a32fe5)"><path fill="#9600ff" d="M 300.179688 347.246094 C 300.179688 329.164062 294.351562 312.085938 283.402344 297.71875 L 283.402344 286.871094 C 283.402344 286.367188 282.898438 285.863281 282.398438 285.863281 L 272.25 285.863281 C 257.480469 273.003906 238.496094 265.871094 218.804688 265.871094 C 201.523438 265.871094 185.046875 271.199219 171.183594 281.242188 L 153.601562 281.242188 C 150.289062 281.242188 147.675781 283.855469 147.675781 287.171875 C 147.675781 296.414062 147.675781 301.539062 147.675781 307.566406 C 140.945312 319.621094 137.429688 333.382812 137.429688 347.246094 C 137.429688 391.953125 173.796875 428.621094 218.804688 428.621094 C 240.101562 428.621094 260.09375 420.484375 275.363281 405.71875 L 284.507812 405.71875 C 287.117188 405.71875 289.328125 403.609375 289.328125 400.894531 L 289.328125 387.734375 C 296.460938 375.578125 300.179688 361.511719 300.179688 347.246094 Z M 278.78125 287.875 L 258.285156 300.53125 L 237.890625 287.875 Z M 235.378906 288.679688 L 256.476562 301.636719 L 235.378906 314.597656 Z M 258.386719 302.945312 L 278.878906 315.601562 L 237.890625 315.601562 Z M 260.296875 301.738281 L 281.390625 288.777344 L 281.390625 314.796875 Z M 218.804688 267.882812 C 237.1875 267.882812 254.96875 274.3125 269.136719 285.863281 L 234.375 285.863281 C 233.875 285.863281 233.371094 286.367188 233.371094 286.871094 L 233.371094 316.507812 C 233.371094 317.007812 233.773438 317.511719 234.375 317.511719 L 282.398438 317.511719 C 282.898438 317.511719 283.402344 317.109375 283.402344 316.507812 L 283.402344 301.136719 C 293.046875 314.597656 298.167969 330.46875 298.167969 347.246094 C 298.167969 359.90625 295.15625 372.464844 289.328125 383.617188 C 289.328125 372.867188 289.328125 343.027344 289.328125 332.277344 C 289.328125 329.667969 287.21875 327.457031 284.507812 327.457031 L 222.421875 327.457031 C 222.421875 325.347656 222.421875 344.335938 222.421875 287.171875 C 222.421875 283.855469 219.808594 281.242188 216.492188 281.242188 L 174.699219 281.242188 C 187.761719 272.503906 202.929688 267.882812 218.804688 267.882812 Z M 188.765625 332.277344 C 188.765625 346.445312 188.765625 372.566406 188.765625 386.527344 L 153.703125 386.527344 C 151.492188 386.527344 149.785156 384.820312 149.785156 382.609375 L 149.785156 294.503906 L 220.410156 294.503906 L 220.410156 327.457031 L 193.488281 327.457031 C 190.875 327.558594 188.765625 329.667969 188.765625 332.277344 Z M 149.785156 287.269531 C 149.785156 285.0625 151.59375 283.351562 153.703125 283.351562 L 216.492188 283.351562 C 218.601562 283.351562 220.410156 285.0625 220.410156 287.269531 L 220.410156 292.597656 L 149.785156 292.597656 Z M 190.773438 332.277344 C 190.773438 330.773438 191.980469 329.464844 193.585938 329.464844 L 284.605469 329.464844 C 286.113281 329.464844 287.421875 330.671875 287.421875 332.277344 L 287.421875 338.40625 L 190.773438 338.40625 Z M 147.777344 311.984375 L 147.777344 382.511719 C 142.453125 371.859375 139.4375 359.90625 139.4375 347.246094 C 139.4375 334.992188 142.25 322.835938 147.777344 311.984375 Z M 150.589844 387.734375 C 151.492188 388.238281 152.5 388.636719 153.703125 388.636719 L 188.765625 388.636719 L 188.765625 400.996094 C 188.765625 402 189.066406 403.003906 189.667969 403.808594 L 163.148438 403.808594 C 158.324219 398.984375 154.105469 393.5625 150.589844 387.734375 Z M 165.257812 405.71875 L 272.550781 405.71875 C 257.785156 419.179688 238.796875 426.613281 218.804688 426.613281 C 198.210938 426.613281 179.320312 418.675781 165.257812 405.71875 Z M 284.507812 403.707031 C 277.273438 403.707031 206.046875 403.707031 193.488281 403.707031 C 191.980469 403.707031 190.675781 402.503906 190.675781 400.894531 L 190.675781 340.515625 L 287.320312 340.515625 L 287.320312 400.996094 C 287.320312 402.503906 286.113281 403.707031 284.507812 403.707031 Z M 284.507812 403.707031 " fill-opacity="1" fill-rule="nonzero"/></g><path fill="#9600ff" d="M 155.714844 326.453125 L 159.53125 326.453125 C 160.132812 326.453125 160.535156 326.050781 160.535156 325.449219 C 160.535156 324.84375 160.132812 324.441406 159.53125 324.441406 L 155.714844 324.441406 C 155.109375 324.441406 154.707031 324.84375 154.707031 325.449219 C 154.707031 325.949219 155.210938 326.453125 155.714844 326.453125 Z M 155.714844 326.453125 " fill-opacity="1" fill-rule="nonzero"/><path fill="#9600ff" d="M 162.945312 326.453125 L 168.671875 326.453125 C 169.277344 326.453125 169.675781 326.050781 169.675781 325.449219 C 169.675781 324.84375 169.277344 324.441406 168.671875 324.441406 L 162.945312 324.441406 C 162.34375 324.441406 161.941406 324.84375 161.941406 325.449219 C 161.941406 325.949219 162.34375 326.453125 162.945312 326.453125 Z M 162.945312 326.453125 " fill-opacity="1" fill-rule="nonzero"/><path fill="#9600ff" d="M 160.535156 329.667969 C 160.535156 329.0625 160.132812 328.664062 159.53125 328.664062 L 155.714844 328.664062 C 155.109375 328.664062 154.707031 329.0625 154.707031 329.667969 C 154.707031 330.269531 155.109375 330.671875 155.714844 330.671875 L 159.53125 330.671875 C 160.132812 330.671875 160.535156 330.269531 160.535156 329.667969 Z M 160.535156 329.667969 " fill-opacity="1" fill-rule="nonzero"/><path fill="#9600ff" d="M 162.945312 330.671875 L 168.671875 330.671875 C 169.277344 330.671875 169.675781 330.269531 169.675781 329.667969 C 169.675781 329.0625 169.277344 328.664062 168.671875 328.664062 L 162.945312 328.664062 C 162.34375 328.664062 161.941406 329.0625 161.941406 329.667969 C 161.941406 330.269531 162.34375 330.671875 162.945312 330.671875 Z M 162.945312 330.671875 " fill-opacity="1" fill-rule="nonzero"/><path fill="#9600ff" d="M 179.222656 333.886719 L 166.363281 333.886719 C 165.757812 333.886719 165.359375 334.289062 165.359375 334.890625 C 165.359375 335.492188 165.757812 335.894531 166.363281 335.894531 L 179.320312 335.894531 C 179.925781 335.894531 180.328125 335.492188 180.328125 334.890625 C 180.226562 334.289062 179.824219 333.886719 179.222656 333.886719 Z M 179.222656 333.886719 " fill-opacity="1" fill-rule="nonzero"/><path fill="#9600ff" d="M 179.222656 338.707031 L 166.363281 338.707031 C 165.757812 338.707031 165.359375 339.109375 165.359375 339.714844 C 165.359375 340.316406 165.757812 340.71875 166.363281 340.71875 L 179.320312 340.71875 C 179.925781 340.71875 180.328125 340.316406 180.328125 339.714844 C 180.226562 339.109375 179.824219 338.707031 179.222656 338.707031 Z M 179.222656 338.707031 " fill-opacity="1" fill-rule="nonzero"/><path fill="#9600ff" d="M 166.363281 345.539062 L 179.320312 345.539062 C 179.925781 345.539062 180.328125 345.136719 180.328125 344.535156 C 180.328125 343.933594 179.925781 343.53125 179.320312 343.53125 L 166.363281 343.53125 C 165.757812 343.53125 165.359375 343.933594 165.359375 344.535156 C 165.359375 345.039062 165.757812 345.539062 166.363281 345.539062 Z M 166.363281 345.539062 " fill-opacity="1" fill-rule="nonzero"/><path fill="#9600ff" d="M 216.492188 411.84375 C 216.492188 411.242188 216.089844 410.839844 215.488281 410.839844 L 191.175781 410.839844 C 190.574219 410.839844 190.171875 411.242188 190.171875 411.84375 C 190.171875 412.449219 190.574219 412.851562 191.175781 412.851562 L 215.488281 412.851562 C 215.992188 412.851562 216.492188 412.347656 216.492188 411.84375 Z M 216.492188 411.84375 " fill-opacity="1" fill-rule="nonzero"/><path fill="#9600ff" d="M 224.429688 411.84375 C 224.429688 411.242188 224.027344 410.839844 223.425781 410.839844 L 219.40625 410.839844 C 218.804688 410.839844 218.402344 411.242188 218.402344 411.84375 C 218.402344 412.449219 218.804688 412.851562 219.40625 412.851562 L 223.425781 412.851562 C 223.925781 412.851562 224.429688 412.347656 224.429688 411.84375 Z M 224.429688 411.84375 " fill-opacity="1" fill-rule="nonzero"/><path fill="#9600ff" d="M 226.839844 412.851562 L 229.453125 412.851562 C 230.054688 412.851562 230.457031 412.449219 230.457031 411.84375 C 230.457031 411.242188 230.054688 410.839844 229.453125 410.839844 L 226.839844 410.839844 C 226.238281 410.839844 225.835938 411.242188 225.835938 411.84375 C 225.835938 412.347656 226.238281 412.851562 226.839844 412.851562 Z M 226.839844 412.851562 " fill-opacity="1" fill-rule="nonzero"/><path fill="#9600ff" d="M 246.429688 415.761719 L 222.121094 415.761719 C 221.515625 415.761719 221.113281 416.164062 221.113281 416.769531 C 221.113281 417.371094 221.515625 417.773438 222.121094 417.773438 L 246.429688 417.773438 C 247.035156 417.773438 247.4375 417.371094 247.4375 416.769531 C 247.4375 416.164062 247.035156 415.761719 246.429688 415.761719 Z M 246.429688 415.761719 " fill-opacity="1" fill-rule="nonzero"/><path fill="#9600ff" d="M 218.203125 415.761719 L 214.183594 415.761719 C 213.578125 415.761719 213.179688 416.164062 213.179688 416.769531 C 213.179688 417.371094 213.578125 417.773438 214.183594 417.773438 L 218.203125 417.773438 C 218.804688 417.773438 219.207031 417.371094 219.207031 416.769531 C 219.207031 416.164062 218.804688 415.761719 218.203125 415.761719 Z M 218.203125 415.761719 " fill-opacity="1" fill-rule="nonzero"/><path fill="#9600ff" d="M 210.765625 415.761719 L 208.15625 415.761719 C 207.550781 415.761719 207.148438 416.164062 207.148438 416.769531 C 207.148438 417.371094 207.550781 417.773438 208.15625 417.773438 L 210.765625 417.773438 C 211.371094 417.773438 211.773438 417.371094 211.773438 416.769531 C 211.773438 416.164062 211.371094 415.761719 210.765625 415.761719 Z M 210.765625 415.761719 " fill-opacity="1" fill-rule="nonzero"/><path fill="#9600ff" d="M 156.417969 285.0625 C 154.808594 285.0625 153.601562 286.367188 153.601562 287.875 C 153.601562 289.480469 154.910156 290.6875 156.417969 290.6875 C 158.023438 290.6875 159.230469 289.382812 159.230469 287.875 C 159.230469 286.367188 158.023438 285.0625 156.417969 285.0625 Z M 156.417969 288.777344 C 155.914062 288.777344 155.613281 288.375 155.613281 287.976562 C 155.613281 287.472656 156.015625 287.171875 156.417969 287.171875 C 156.917969 287.171875 157.21875 287.574219 157.21875 287.976562 C 157.21875 288.375 156.917969 288.777344 156.417969 288.777344 Z M 156.417969 288.777344 " fill-opacity="1" fill-rule="nonzero"/><path fill="#9600ff" d="M 163.347656 285.0625 C 161.742188 285.0625 160.535156 286.367188 160.535156 287.875 C 160.535156 289.480469 161.839844 290.6875 163.347656 290.6875 C 164.957031 290.6875 166.160156 289.382812 166.160156 287.875 C 166.261719 286.367188 164.957031 285.0625 163.347656 285.0625 Z M 163.347656 288.777344 C 162.847656 288.777344 162.542969 288.375 162.542969 287.976562 C 162.542969 287.472656 162.945312 287.171875 163.347656 287.171875 C 163.851562 287.171875 164.152344 287.574219 164.152344 287.976562 C 164.253906 288.375 163.851562 288.777344 163.347656 288.777344 Z M 163.347656 288.777344 " fill-opacity="1" fill-rule="nonzero"/><path fill="#9600ff" d="M 170.378906 285.0625 C 168.773438 285.0625 167.566406 286.367188 167.566406 287.875 C 167.566406 289.480469 168.875 290.6875 170.378906 290.6875 C 171.988281 290.6875 173.195312 289.382812 173.195312 287.875 C 173.195312 286.367188 171.886719 285.0625 170.378906 285.0625 Z M 170.378906 288.777344 C 169.878906 288.777344 169.578125 288.375 169.578125 287.976562 C 169.578125 287.472656 169.980469 287.171875 170.378906 287.171875 C 170.882812 287.171875 171.183594 287.574219 171.183594 287.976562 C 171.183594 288.375 170.78125 288.777344 170.378906 288.777344 Z M 170.378906 288.777344 " fill-opacity="1" fill-rule="nonzero"/><path fill="#9600ff" d="M 213.679688 285.0625 L 178.71875 285.0625 C 177.113281 285.0625 175.90625 286.367188 175.90625 287.875 C 175.90625 289.480469 177.210938 290.6875 178.71875 290.6875 L 213.679688 290.6875 C 215.289062 290.6875 216.492188 289.382812 216.492188 287.875 C 216.492188 286.367188 215.289062 285.0625 213.679688 285.0625 Z M 213.679688 288.777344 L 178.71875 288.777344 C 178.21875 288.777344 177.914062 288.375 177.914062 287.976562 C 177.914062 287.472656 178.316406 287.171875 178.71875 287.171875 L 213.679688 287.171875 C 214.183594 287.171875 214.484375 287.574219 214.484375 287.976562 C 214.484375 288.375 214.183594 288.777344 213.679688 288.777344 Z M 213.679688 288.777344 " fill-opacity="1" fill-rule="nonzero"/><path fill="#9600ff" d="M 156.417969 369.851562 L 163.953125 373.269531 L 163.953125 371.460938 L 158.324219 368.847656 L 158.324219 368.746094 L 163.953125 366.136719 L 163.953125 364.328125 L 156.417969 367.84375 Z M 156.417969 369.851562 " fill-opacity="1" fill-rule="nonzero"/><path fill="#9600ff" d="M 165.558594 376.984375 L 167.164062 376.984375 L 174.097656 362.21875 L 172.492188 362.21875 Z M 165.558594 376.984375 " fill-opacity="1" fill-rule="nonzero"/><path fill="#9600ff" d="M 175.707031 366.136719 L 181.332031 368.746094 L 181.332031 368.847656 L 175.707031 371.460938 L 175.707031 373.269531 L 183.238281 369.851562 L 183.238281 367.84375 L 175.707031 364.328125 Z M 175.707031 366.136719 " fill-opacity="1" fill-rule="nonzero"/><path fill="#9600ff" d="M 222.921875 379.699219 L 198.109375 379.699219 C 197.503906 379.699219 197.105469 380.097656 197.105469 380.703125 L 197.105469 390.046875 C 197.105469 390.648438 197.503906 391.050781 198.109375 391.050781 L 222.921875 391.050781 C 223.527344 391.050781 223.925781 390.648438 223.925781 390.046875 L 223.925781 380.703125 C 223.925781 380.097656 223.425781 379.699219 222.921875 379.699219 Z M 221.917969 389.039062 L 199.113281 389.039062 L 199.113281 381.707031 L 221.917969 381.707031 Z M 221.917969 389.039062 " fill-opacity="1" fill-rule="nonzero"/><path fill="#9600ff" d="M 251.453125 379.699219 L 226.640625 379.699219 C 226.039062 379.699219 225.636719 380.097656 225.636719 380.703125 L 225.636719 390.046875 C 225.636719 390.648438 226.039062 391.050781 226.640625 391.050781 L 251.453125 391.050781 C 252.058594 391.050781 252.460938 390.648438 252.460938 390.046875 L 252.460938 380.703125 C 252.460938 380.097656 251.957031 379.699219 251.453125 379.699219 Z M 250.449219 389.039062 L 227.644531 389.039062 L 227.644531 381.707031 L 250.449219 381.707031 Z M 250.449219 389.039062 " fill-opacity="1" fill-rule="nonzero"/><path fill="#9600ff" d="M 279.984375 379.699219 L 255.171875 379.699219 C 254.570312 379.699219 254.167969 380.097656 254.167969 380.703125 L 254.167969 390.046875 C 254.167969 390.648438 254.570312 391.050781 255.171875 391.050781 L 279.984375 391.050781 C 280.589844 391.050781 280.992188 390.648438 280.992188 390.046875 L 280.992188 380.703125 C 280.992188 380.097656 280.488281 379.699219 279.984375 379.699219 Z M 278.980469 389.039062 L 256.175781 389.039062 L 256.175781 381.707031 L 278.980469 381.707031 Z M 278.980469 389.039062 " fill-opacity="1" fill-rule="nonzero"/><path fill="#9600ff" d="M 197.90625 330.773438 C 196.097656 330.773438 194.691406 332.179688 194.691406 333.988281 C 194.691406 335.796875 196.097656 337.203125 197.90625 337.203125 C 199.714844 337.203125 201.121094 335.796875 201.121094 333.988281 C 201.121094 332.179688 199.714844 330.773438 197.90625 330.773438 Z M 197.90625 335.292969 C 197.203125 335.292969 196.703125 334.789062 196.703125 334.085938 C 196.703125 333.382812 197.203125 332.882812 197.90625 332.882812 C 198.609375 332.882812 199.113281 333.382812 199.113281 334.085938 C 199.113281 334.691406 198.609375 335.292969 197.90625 335.292969 Z M 197.90625 335.292969 " fill-opacity="1" fill-rule="nonzero"/><path fill="#9600ff" d="M 205.644531 330.773438 C 203.835938 330.773438 202.429688 332.179688 202.429688 333.988281 C 202.429688 335.796875 203.835938 337.203125 205.644531 337.203125 C 207.453125 337.203125 208.859375 335.796875 208.859375 333.988281 C 208.957031 332.179688 207.453125 330.773438 205.644531 330.773438 Z M 205.644531 335.292969 C 204.941406 335.292969 204.4375 334.789062 204.4375 334.085938 C 204.4375 333.382812 204.941406 332.882812 205.644531 332.882812 C 206.347656 332.882812 206.847656 333.382812 206.847656 334.085938 C 206.949219 334.691406 206.347656 335.292969 205.644531 335.292969 Z M 205.644531 335.292969 " fill-opacity="1" fill-rule="nonzero"/><path fill="#9600ff" d="M 213.378906 330.773438 C 211.570312 330.773438 210.164062 332.179688 210.164062 333.988281 C 210.164062 335.796875 211.570312 337.203125 213.378906 337.203125 C 215.1875 337.203125 216.59375 335.796875 216.59375 333.988281 C 216.695312 332.179688 215.1875 330.773438 213.378906 330.773438 Z M 213.378906 335.292969 C 212.675781 335.292969 212.171875 334.789062 212.171875 334.085938 C 212.171875 333.382812 212.675781 332.882812 213.378906 332.882812 C 214.082031 332.882812 214.585938 333.382812 214.585938 334.085938 C 214.683594 334.691406 214.082031 335.292969 213.378906 335.292969 Z M 213.378906 335.292969 " fill-opacity="1" fill-rule="nonzero"/><path fill="#9600ff" d="M 280.085938 330.773438 L 224.230469 330.773438 C 222.421875 330.773438 221.015625 332.179688 221.015625 333.988281 C 221.015625 335.796875 222.421875 337.203125 224.230469 337.203125 L 280.085938 337.203125 C 281.894531 337.203125 283.300781 335.796875 283.300781 333.988281 C 283.402344 332.179688 281.894531 330.773438 280.085938 330.773438 Z M 280.085938 335.292969 L 224.230469 335.292969 C 223.527344 335.292969 223.023438 334.789062 223.023438 334.085938 C 223.023438 333.382812 223.527344 332.882812 224.230469 332.882812 L 280.085938 332.882812 C 280.789062 332.882812 281.292969 333.382812 281.292969 334.085938 C 281.390625 334.691406 280.789062 335.292969 280.085938 335.292969 Z M 280.085938 335.292969 " fill-opacity="1" fill-rule="nonzero"/><path fill="#9600ff" d="M 198.109375 376.382812 L 226.238281 376.382812 C 226.839844 376.382812 227.242188 375.980469 227.242188 375.378906 L 227.242188 347.246094 C 227.242188 346.644531 226.839844 346.242188 226.238281 346.242188 L 198.109375 346.242188 C 197.503906 346.242188 197.105469 346.644531 197.105469 347.246094 L 197.105469 375.378906 C 197.105469 375.878906 197.503906 376.382812 198.109375 376.382812 Z M 199.113281 348.253906 L 225.234375 348.253906 L 225.234375 374.371094 L 199.113281 374.371094 Z M 199.113281 348.253906 " fill-opacity="1" fill-rule="nonzero"/><path fill="#9600ff" d="M 223.425781 358.601562 L 221.214844 358.097656 C 221.113281 357.796875 220.914062 357.394531 220.8125 357.09375 L 222.019531 355.183594 C 222.21875 354.78125 222.21875 354.28125 221.917969 353.980469 L 219.507812 351.566406 C 219.207031 351.265625 218.703125 351.164062 218.300781 351.46875 L 216.394531 352.671875 C 216.089844 352.472656 215.691406 352.371094 215.386719 352.269531 L 214.886719 350.0625 C 214.785156 349.558594 214.382812 349.257812 213.882812 349.257812 L 210.464844 349.257812 C 209.964844 349.257812 209.5625 349.558594 209.460938 350.0625 L 208.957031 352.171875 C 208.65625 352.269531 208.253906 352.472656 207.953125 352.574219 L 206.046875 351.367188 C 205.644531 351.066406 205.140625 351.164062 204.839844 351.46875 L 202.429688 353.878906 C 202.128906 354.179688 202.027344 354.683594 202.328125 355.082031 L 203.535156 356.992188 C 203.332031 357.292969 203.230469 357.695312 203.132812 357.996094 L 201.023438 358.5 C 200.519531 358.601562 200.21875 359.003906 200.21875 359.503906 L 200.21875 362.921875 C 200.21875 363.421875 200.519531 363.824219 201.023438 363.925781 L 203.132812 364.425781 C 203.230469 364.828125 203.433594 365.128906 203.535156 365.433594 L 202.328125 367.339844 C 202.128906 367.742188 202.128906 368.246094 202.429688 368.546875 L 204.839844 370.957031 C 205.140625 371.257812 205.644531 371.359375 206.046875 371.058594 L 207.953125 369.851562 C 208.253906 370.054688 208.65625 370.152344 208.957031 370.253906 L 209.460938 372.363281 C 209.5625 372.867188 209.964844 373.167969 210.464844 373.167969 L 213.882812 373.167969 C 214.382812 373.167969 214.785156 372.867188 214.886719 372.363281 L 215.386719 370.253906 C 215.789062 370.152344 216.089844 369.953125 216.394531 369.851562 L 218.300781 371.058594 C 218.703125 371.257812 219.207031 371.257812 219.507812 370.957031 L 221.917969 368.546875 C 222.21875 368.246094 222.320312 367.742188 222.019531 367.339844 L 220.8125 365.433594 C 221.015625 365.128906 221.113281 364.726562 221.214844 364.425781 L 223.324219 363.925781 C 223.828125 363.824219 224.128906 363.421875 224.128906 362.921875 L 224.128906 359.503906 C 224.230469 359.101562 223.925781 358.699219 223.425781 358.601562 Z M 222.21875 362.21875 L 220.3125 362.617188 C 219.910156 362.71875 219.707031 363.019531 219.609375 363.320312 C 219.40625 363.925781 219.207031 364.527344 218.90625 365.03125 C 218.703125 365.332031 218.703125 365.734375 218.90625 366.035156 L 220.007812 367.742188 L 218.703125 369.046875 L 216.996094 367.941406 C 216.695312 367.742188 216.292969 367.742188 215.992188 367.941406 C 215.488281 368.246094 214.886719 368.445312 214.28125 368.644531 C 213.980469 368.746094 213.679688 369.046875 213.578125 369.351562 L 213.179688 371.257812 L 211.371094 371.257812 L 210.96875 369.351562 C 210.867188 368.949219 210.667969 368.746094 210.265625 368.644531 C 209.660156 368.445312 209.058594 368.246094 208.558594 367.941406 C 208.253906 367.742188 207.851562 367.742188 207.550781 367.941406 L 205.84375 369.046875 L 204.539062 367.742188 L 205.644531 366.035156 C 205.84375 365.734375 205.84375 365.332031 205.644531 365.03125 C 205.34375 364.527344 205.140625 363.925781 204.941406 363.320312 C 204.839844 363.019531 204.539062 362.71875 204.238281 362.617188 L 202.328125 362.21875 L 202.328125 360.410156 L 204.238281 360.007812 C 204.640625 359.90625 204.839844 359.707031 204.941406 359.304688 C 205.140625 358.699219 205.34375 358.097656 205.644531 357.59375 C 205.84375 357.292969 205.84375 356.890625 205.644531 356.589844 L 204.539062 354.882812 L 205.84375 353.578125 L 207.550781 354.683594 C 207.851562 354.882812 208.253906 354.882812 208.558594 354.683594 C 209.160156 354.378906 209.660156 354.179688 210.265625 353.980469 C 210.667969 353.878906 210.867188 353.578125 210.96875 353.277344 L 211.371094 351.367188 L 213.179688 351.367188 L 213.578125 353.277344 C 213.679688 353.675781 213.980469 353.878906 214.28125 353.980469 C 214.886719 354.179688 215.488281 354.378906 215.992188 354.683594 C 216.292969 354.882812 216.695312 354.882812 216.996094 354.683594 L 218.703125 353.578125 L 220.007812 354.882812 L 218.90625 356.589844 C 218.703125 356.890625 218.703125 357.292969 218.90625 357.59375 C 219.207031 358.199219 219.40625 358.699219 219.609375 359.304688 C 219.707031 359.707031 220.007812 359.90625 220.3125 360.007812 L 222.21875 360.410156 Z M 222.21875 362.21875 " fill-opacity="1" fill-rule="nonzero"/><path fill="#9600ff" d="M 212.171875 356.1875 C 209.359375 356.1875 207.050781 358.5 207.050781 361.3125 C 207.050781 364.125 209.359375 366.4375 212.171875 366.4375 C 214.988281 366.4375 217.296875 364.125 217.296875 361.3125 C 217.296875 358.5 214.988281 356.1875 212.171875 356.1875 Z M 212.171875 364.425781 C 210.464844 364.425781 209.058594 363.019531 209.058594 361.3125 C 209.058594 359.605469 210.464844 358.199219 212.171875 358.199219 C 213.882812 358.199219 215.289062 359.605469 215.289062 361.3125 C 215.289062 363.019531 213.882812 364.425781 212.171875 364.425781 Z M 212.171875 364.425781 " fill-opacity="1" fill-rule="nonzero"/><path fill="#9600ff" d="M 232.769531 357.59375 L 274.058594 357.59375 C 274.660156 357.59375 275.0625 357.195312 275.0625 356.589844 L 275.0625 347.246094 C 275.0625 346.644531 274.660156 346.242188 274.058594 346.242188 L 232.769531 346.242188 C 232.164062 346.242188 231.765625 346.644531 231.765625 347.246094 L 231.765625 356.589844 C 231.765625 357.09375 232.265625 357.59375 232.769531 357.59375 Z M 233.773438 348.253906 L 273.054688 348.253906 L 273.054688 355.585938 L 233.773438 355.585938 Z M 233.773438 348.253906 " fill-opacity="1" fill-rule="nonzero"/><path fill="#9600ff" d="M 155.714844 299.328125 L 159.53125 299.328125 C 160.132812 299.328125 160.535156 298.925781 160.535156 298.324219 C 160.535156 297.71875 160.132812 297.316406 159.53125 297.316406 L 155.714844 297.316406 C 155.109375 297.316406 154.707031 297.71875 154.707031 298.324219 C 154.707031 298.925781 155.210938 299.328125 155.714844 299.328125 Z M 155.714844 299.328125 " fill-opacity="1" fill-rule="nonzero"/><path fill="#9600ff" d="M 162.945312 299.328125 L 168.671875 299.328125 C 169.277344 299.328125 169.675781 298.925781 169.675781 298.324219 C 169.675781 297.71875 169.277344 297.316406 168.671875 297.316406 L 162.945312 297.316406 C 162.34375 297.316406 161.941406 297.71875 161.941406 298.324219 C 161.941406 298.925781 162.34375 299.328125 162.945312 299.328125 Z M 162.945312 299.328125 " fill-opacity="1" fill-rule="nonzero"/><path fill="#9600ff" d="M 155.714844 303.648438 L 159.53125 303.648438 C 160.132812 303.648438 160.535156 303.246094 160.535156 302.640625 C 160.535156 302.039062 160.132812 301.636719 159.53125 301.636719 L 155.714844 301.636719 C 155.109375 301.636719 154.707031 302.039062 154.707031 302.640625 C 154.707031 303.144531 155.210938 303.648438 155.714844 303.648438 Z M 155.714844 303.648438 " fill-opacity="1" fill-rule="nonzero"/><path fill="#9600ff" d="M 162.945312 303.648438 L 168.671875 303.648438 C 169.277344 303.648438 169.675781 303.246094 169.675781 302.640625 C 169.675781 302.039062 169.277344 301.636719 168.671875 301.636719 L 162.945312 301.636719 C 162.34375 301.636719 161.941406 302.039062 161.941406 302.640625 C 161.941406 303.144531 162.34375 303.648438 162.945312 303.648438 Z M 162.945312 303.648438 " fill-opacity="1" fill-rule="nonzero"/><path fill="#9600ff" d="M 165.359375 307.765625 C 165.359375 308.367188 165.757812 308.769531 166.363281 308.769531 L 179.320312 308.769531 C 179.925781 308.769531 180.328125 308.367188 180.328125 307.765625 C 180.328125 307.164062 179.925781 306.761719 179.320312 306.761719 L 166.363281 306.761719 C 165.757812 306.761719 165.359375 307.261719 165.359375 307.765625 Z M 165.359375 307.765625 " fill-opacity="1" fill-rule="nonzero"/><path fill="#9600ff" d="M 182.839844 308.769531 L 195.796875 308.769531 C 196.402344 308.769531 196.800781 308.367188 196.800781 307.765625 C 196.800781 307.164062 196.402344 306.761719 195.796875 306.761719 L 182.839844 306.761719 C 182.234375 306.761719 181.832031 307.164062 181.832031 307.765625 C 181.832031 308.367188 182.335938 308.769531 182.839844 308.769531 Z M 182.839844 308.769531 " fill-opacity="1" fill-rule="nonzero"/><path fill="#9600ff" d="M 199.414062 308.769531 L 212.375 308.769531 C 212.976562 308.769531 213.378906 308.367188 213.378906 307.765625 C 213.378906 307.164062 212.976562 306.761719 212.375 306.761719 L 199.414062 306.761719 C 198.8125 306.761719 198.410156 307.164062 198.410156 307.765625 C 198.410156 308.367188 198.8125 308.769531 199.414062 308.769531 Z M 199.414062 308.769531 " fill-opacity="1" fill-rule="nonzero"/><path fill="#9600ff" d="M 179.222656 311.582031 L 166.363281 311.582031 C 165.757812 311.582031 165.359375 311.984375 165.359375 312.589844 C 165.359375 313.191406 165.757812 313.59375 166.363281 313.59375 L 179.320312 313.59375 C 179.925781 313.59375 180.328125 313.191406 180.328125 312.589844 C 180.328125 311.984375 179.824219 311.582031 179.222656 311.582031 Z M 179.222656 311.582031 " fill-opacity="1" fill-rule="nonzero"/><path fill="#9600ff" d="M 182.839844 313.59375 L 195.796875 313.59375 C 196.402344 313.59375 196.800781 313.191406 196.800781 312.589844 C 196.800781 311.984375 196.402344 311.582031 195.796875 311.582031 L 182.839844 311.582031 C 182.234375 311.582031 181.832031 311.984375 181.832031 312.589844 C 181.832031 313.191406 182.335938 313.59375 182.839844 313.59375 Z M 182.839844 313.59375 " fill-opacity="1" fill-rule="nonzero"/><path fill="#9600ff" d="M 199.414062 313.59375 L 212.375 313.59375 C 212.976562 313.59375 213.378906 313.191406 213.378906 312.589844 C 213.378906 311.984375 212.976562 311.582031 212.375 311.582031 L 199.414062 311.582031 C 198.8125 311.582031 198.410156 311.984375 198.410156 312.589844 C 198.410156 313.191406 198.8125 313.59375 199.414062 313.59375 Z M 199.414062 313.59375 " fill-opacity="1" fill-rule="nonzero"/><path fill="#9600ff" d="M 179.222656 316.40625 L 166.363281 316.40625 C 165.757812 316.40625 165.359375 316.808594 165.359375 317.410156 C 165.359375 318.011719 165.757812 318.414062 166.363281 318.414062 L 179.320312 318.414062 C 179.925781 318.414062 180.328125 318.011719 180.328125 317.410156 C 180.226562 316.90625 179.824219 316.40625 179.222656 316.40625 Z M 179.222656 316.40625 " fill-opacity="1" fill-rule="nonzero"/><path fill="#9600ff" d="M 196.800781 317.410156 C 196.800781 316.808594 196.402344 316.40625 195.796875 316.40625 L 182.839844 316.40625 C 182.234375 316.40625 181.832031 316.808594 181.832031 317.410156 C 181.832031 318.011719 182.234375 318.414062 182.839844 318.414062 L 195.796875 318.414062 C 196.300781 318.414062 196.800781 318.011719 196.800781 317.410156 Z M 196.800781 317.410156 " fill-opacity="1" fill-rule="nonzero"/><path fill="#9600ff" d="M 199.414062 318.414062 L 212.375 318.414062 C 212.976562 318.414062 213.378906 318.011719 213.378906 317.410156 C 213.378906 316.808594 212.976562 316.40625 212.375 316.40625 L 199.414062 316.40625 C 198.8125 316.40625 198.410156 316.808594 198.410156 317.410156 C 198.410156 318.011719 198.8125 318.414062 199.414062 318.414062 Z M 199.414062 318.414062 " fill-opacity="1" fill-rule="nonzero"/><path fill="#9600ff" d="M 222.921875 393.058594 L 198.109375 393.058594 C 197.503906 393.058594 197.105469 393.460938 197.105469 394.0625 C 197.105469 394.667969 197.503906 395.066406 198.109375 395.066406 L 222.921875 395.066406 C 223.527344 395.066406 223.925781 394.667969 223.925781 394.0625 C 223.925781 393.460938 223.425781 393.058594 222.921875 393.058594 Z M 222.921875 393.058594 " fill-opacity="1" fill-rule="nonzero"/><path fill="#9600ff" d="M 209.359375 397.078125 L 198.109375 397.078125 C 197.503906 397.078125 197.105469 397.480469 197.105469 398.082031 C 197.105469 398.683594 197.503906 399.085938 198.109375 399.085938 L 209.359375 399.085938 C 209.964844 399.085938 210.363281 398.683594 210.363281 398.082031 C 210.363281 397.480469 209.863281 397.078125 209.359375 397.078125 Z M 209.359375 397.078125 " fill-opacity="1" fill-rule="nonzero"/><path fill="#9600ff" d="M 237.792969 397.078125 L 226.640625 397.078125 C 226.039062 397.078125 225.636719 397.480469 225.636719 398.082031 C 225.636719 398.683594 226.039062 399.085938 226.640625 399.085938 L 237.890625 399.085938 C 238.496094 399.085938 238.898438 398.683594 238.898438 398.082031 C 238.796875 397.480469 238.394531 397.078125 237.792969 397.078125 Z M 237.792969 397.078125 " fill-opacity="1" fill-rule="nonzero"/><path fill="#9600ff" d="M 279.984375 393.058594 L 255.171875 393.058594 C 254.570312 393.058594 254.167969 393.460938 254.167969 394.0625 C 254.167969 394.667969 254.570312 395.066406 255.171875 395.066406 L 279.984375 395.066406 C 280.589844 395.066406 280.992188 394.667969 280.992188 394.0625 C 280.992188 393.460938 280.488281 393.058594 279.984375 393.058594 Z M 279.984375 393.058594 " fill-opacity="1" fill-rule="nonzero"/><path fill="#9600ff" d="M 266.324219 397.078125 L 255.070312 397.078125 C 254.46875 397.078125 254.066406 397.480469 254.066406 398.082031 C 254.066406 398.683594 254.46875 399.085938 255.070312 399.085938 L 266.324219 399.085938 C 266.925781 399.085938 267.328125 398.683594 267.328125 398.082031 C 267.328125 397.480469 266.925781 397.078125 266.324219 397.078125 Z M 266.324219 397.078125 " fill-opacity="1" fill-rule="nonzero"/><path fill="#9600ff" d="M 251.453125 393.058594 L 226.640625 393.058594 C 226.039062 393.058594 225.636719 393.460938 225.636719 394.0625 C 225.636719 394.667969 226.039062 395.066406 226.640625 395.066406 L 251.453125 395.066406 C 252.058594 395.066406 252.460938 394.667969 252.460938 394.0625 C 252.460938 393.460938 251.957031 393.058594 251.453125 393.058594 Z M 251.453125 393.058594 " fill-opacity="1" fill-rule="nonzero"/><path fill="#9600ff" d="M 232.769531 363.625 L 265.117188 363.625 C 265.71875 363.625 266.121094 363.222656 266.121094 362.617188 C 266.121094 362.015625 265.71875 361.613281 265.117188 361.613281 L 232.769531 361.613281 C 232.164062 361.613281 231.765625 362.015625 231.765625 362.617188 C 231.765625 363.121094 232.265625 363.625 232.769531 363.625 Z M 232.769531 363.625 " fill-opacity="1" fill-rule="nonzero"/><path fill="#9600ff" d="M 251.753906 367.640625 L 232.769531 367.640625 C 232.164062 367.640625 231.765625 368.042969 231.765625 368.644531 C 231.765625 369.25 232.164062 369.652344 232.769531 369.652344 L 251.65625 369.652344 C 252.257812 369.652344 252.660156 369.25 252.660156 368.644531 C 252.761719 368.042969 252.257812 367.640625 251.753906 367.640625 Z M 251.753906 367.640625 " fill-opacity="1" fill-rule="nonzero"/></svg>